<svg xmlns="http://www.w3.org/2000/svg" width="153.6" height="48" viewBox="0 0 153.6 48"><defs><style>.a{fill:#fff;}</style></defs><g transform="translate(-1576.4 -403)"><path d="M193,67H49a4.814,4.814,0,0,1-4.8-4.8V23.8A4.814,4.814,0,0,1,49,19H193a4.814,4.814,0,0,1,4.8,4.8V62.2A4.814,4.814,0,0,1,193,67Z" transform="translate(1532.2 384)"/><path class="a" d="M74.551,40.244a6.958,6.958,0,0,1,3.24-5.64,7.477,7.477,0,0,0-5.4-3c-2.28-.24-4.56,1.32-5.64,1.32-1.2,0-3-1.32-4.92-1.32a7.129,7.129,0,0,0-6.12,3.72c-2.64,4.56-.72,11.28,1.8,15,1.32,1.8,2.76,3.84,4.68,3.72s2.64-1.2,4.92-1.2,2.88,1.2,4.92,1.2,3.36-1.8,4.56-3.6a13.755,13.755,0,0,0,2.04-4.2A6.635,6.635,0,0,1,74.551,40.244Z" transform="translate(1534.249 386.516)"/><path class="a" d="M68.827,30.4a7.442,7.442,0,0,0,1.56-4.8,6.427,6.427,0,0,0-4.32,2.28,6.068,6.068,0,0,0-1.56,4.56A5.7,5.7,0,0,0,68.827,30.4Z" transform="translate(1536.253 385.32)"/><path class="a" d="M96.16,52.68H93.52l-1.44-4.56H87.04l-1.32,4.56H83.2L88.24,37.2h3.12ZM91.6,46.2l-1.32-4.08c-.12-.36-.36-1.44-.84-2.88h0c-.12.6-.36,1.68-.72,2.88L87.4,46.2Z" transform="translate(1540 387.64)"/><path class="a" d="M106.5,46.34a6.39,6.39,0,0,1-1.56,4.56,4.616,4.616,0,0,1-3.48,1.44,3.266,3.266,0,0,1-3.12-1.56h0v5.88H95.82v-12c0-1.2,0-2.4-.12-3.72h2.16l.12,1.8h0a4.135,4.135,0,0,1,3.72-2.04,3.87,3.87,0,0,1,3.24,1.56A5.084,5.084,0,0,1,106.5,46.34Zm-2.52,0a4.311,4.311,0,0,0-.72-2.64,2.423,2.423,0,0,0-2.16-1.08,2.867,2.867,0,0,0-1.68.6,2.668,2.668,0,0,0-.96,1.56,2.111,2.111,0,0,0-.12.72v1.92a3.028,3.028,0,0,0,.72,2.04,2.388,2.388,0,0,0,1.92.84,2.423,2.423,0,0,0,2.16-1.08A4.335,4.335,0,0,0,103.98,46.34Z" transform="translate(1542.5 388.34)"/><path class="a" d="M117.2,46.34a6.39,6.39,0,0,1-1.56,4.56,4.616,4.616,0,0,1-3.48,1.44,3.266,3.266,0,0,1-3.12-1.56h0v5.88h-2.52v-12c0-1.2,0-2.4-.12-3.72h2.16l.12,1.8h0a4.135,4.135,0,0,1,3.72-2.04,3.87,3.87,0,0,1,3.24,1.56A5.084,5.084,0,0,1,117.2,46.34Zm-2.52,0a4.311,4.311,0,0,0-.72-2.64,2.423,2.423,0,0,0-2.16-1.08,2.867,2.867,0,0,0-1.68.6,2.668,2.668,0,0,0-.96,1.56,2.111,2.111,0,0,0-.12.72v1.92a3.028,3.028,0,0,0,.72,2.04,2.388,2.388,0,0,0,1.92.84,2.423,2.423,0,0,0,2.16-1.08A4.335,4.335,0,0,0,114.68,46.34Z" transform="translate(1544.64 388.34)"/><path class="a" d="M128.98,48.38a4.431,4.431,0,0,1-1.32,3.24,5.713,5.713,0,0,1-4.2,1.32,7.419,7.419,0,0,1-3.96-.96l.6-2.04a7.331,7.331,0,0,0,3.6.96,3.563,3.563,0,0,0,2.16-.6,2.179,2.179,0,0,0,.72-1.68,2.281,2.281,0,0,0-.6-1.56,6.014,6.014,0,0,0-2.16-1.2c-2.76-.96-4.08-2.52-4.08-4.44a3.87,3.87,0,0,1,1.44-3.12,5.465,5.465,0,0,1,3.84-1.2,7.482,7.482,0,0,1,3.48.72l-.6,2.04a5.845,5.845,0,0,0-3-.72,3.432,3.432,0,0,0-2.04.6,1.987,1.987,0,0,0-.6,1.44,2.112,2.112,0,0,0,.72,1.56,9.31,9.31,0,0,0,2.28,1.2,8.1,8.1,0,0,1,3,1.92A4.83,4.83,0,0,1,128.98,48.38Z" transform="translate(1547.26 387.62)"/><path class="a" d="M135.34,43.18h-2.76v5.4c0,1.32.48,2.04,1.44,2.04a2.664,2.664,0,0,0,1.08-.12l.12,1.92a4.4,4.4,0,0,1-1.92.24,2.823,2.823,0,0,1-2.28-.84,4.083,4.083,0,0,1-.84-3V43.18H128.5V41.26h1.68V39.22l2.4-.72v2.76h2.76Z" transform="translate(1549.06 387.9)"/><path class="a" d="M146.32,46.36a6.155,6.155,0,0,1-1.44,4.2,5.516,5.516,0,0,1-4.08,1.68,5.067,5.067,0,0,1-3.96-1.68,5.845,5.845,0,0,1-1.44-4.08,5.7,5.7,0,0,1,1.56-4.2,5.329,5.329,0,0,1,4.08-1.68A5.067,5.067,0,0,1,145,42.28,6.4,6.4,0,0,1,146.32,46.36Zm-2.64.12a4.563,4.563,0,0,0-.72-2.64,2.629,2.629,0,0,0-4.56,0,4.838,4.838,0,0,0-.72,2.64,4.563,4.563,0,0,0,.72,2.64,2.573,2.573,0,0,0,2.28,1.32,2.718,2.718,0,0,0,2.28-1.32A4.838,4.838,0,0,0,143.68,46.48Z" transform="translate(1550.439 388.32)"/><path class="a" d="M152.22,43.02c-.24,0-.48-.12-.84-.12a2.563,2.563,0,0,0-2.04.96,4.144,4.144,0,0,0-.6,2.16V51.9h-2.52V44.22a31.466,31.466,0,0,0-.12-3.48h2.16l.12,2.16h.12a4.747,4.747,0,0,1,1.2-1.8,3.571,3.571,0,0,1,1.8-.6h.6v2.52Z" transform="translate(1552.9 388.299)"/><path class="a" d="M162.06,45.88a2.664,2.664,0,0,1-.12,1.08H154.5a3.1,3.1,0,0,0,1.08,2.52,3.865,3.865,0,0,0,2.4.84,7.88,7.88,0,0,0,3-.48l.36,1.68a8.946,8.946,0,0,1-3.72.72,5.25,5.25,0,0,1-4.08-1.56,5.645,5.645,0,0,1-1.44-4.08,6.75,6.75,0,0,1,1.32-4.2,4.794,4.794,0,0,1,3.96-1.8,3.993,3.993,0,0,1,3.6,1.8A5.038,5.038,0,0,1,162.06,45.88Zm-2.28-.6a3.521,3.521,0,0,0-.48-1.92,2.162,2.162,0,0,0-1.92-1.08,2.332,2.332,0,0,0-1.92.96,4.582,4.582,0,0,0-.72,1.92h5.04Z" transform="translate(1554.101 388.32)"/><path class="a" d="M90.64,29.9a3.9,3.9,0,0,1-1.2,3.12,4.966,4.966,0,0,1-3.24.96,7.946,7.946,0,0,1-1.8-.12V26.42a11.667,11.667,0,0,1,2.16-.12,4.472,4.472,0,0,1,3,.84A3.886,3.886,0,0,1,90.64,29.9Zm-1.32,0a2.507,2.507,0,0,0-2.76-2.76,2.339,2.339,0,0,0-.96.12V32.9h.84a2.934,2.934,0,0,0,2.16-.72A3.249,3.249,0,0,0,89.32,29.9Z" transform="translate(1540.24 385.46)"/><path class="a" d="M96.1,30.78a2.823,2.823,0,0,1-.72,2.04,2.472,2.472,0,0,1-2.04.84,2.238,2.238,0,0,1-1.92-.84,3.25,3.25,0,0,1,0-4.08,2.472,2.472,0,0,1,2.04-.84,2.238,2.238,0,0,1,1.92.84A2.823,2.823,0,0,1,96.1,30.78Zm-1.2,0a2.419,2.419,0,0,0-.36-1.32,1.049,1.049,0,0,0-1.08-.6,1.26,1.26,0,0,0-1.08.6,2.6,2.6,0,0,0,0,2.64,1.049,1.049,0,0,0,1.08.6,1.153,1.153,0,0,0,1.08-.72A1.792,1.792,0,0,0,94.9,30.78Z" transform="translate(1541.5 385.78)"/><path class="a" d="M104.24,28l-1.68,5.52h-1.08l-.72-2.4a10,10,0,0,1-.48-1.8h0a10,10,0,0,1-.48,1.8l-.72,2.4H98L96.2,28h1.2l.6,2.64.36,1.8h0c.12-.48.24-1.08.48-1.8L99.56,28h.96l.72,2.52a10,10,0,0,1,.48,1.8h0l.36-1.8L102.8,28Z" transform="translate(1542.6 385.8)"/><path class="a" d="M108.88,33.56h-1.2V30.44q0-1.44-1.08-1.44a1.089,1.089,0,0,0-.84.36,1.363,1.363,0,0,0-.36.96v3.24h-1.2V28.04h1.08v.84h0a3.181,3.181,0,0,1,.6-.72,1.936,1.936,0,0,1,1.08-.36,1.8,1.8,0,0,1,1.32.48,2.065,2.065,0,0,1,.6,1.8Z" transform="translate(1544.2 385.76)"/><path class="a" d="M111.1,33.94h-1.2V25.9h1.2Z" transform="translate(1545.34 385.38)"/><path class="a" d="M117.8,30.78a2.823,2.823,0,0,1-.72,2.04,2.472,2.472,0,0,1-2.04.84,2.238,2.238,0,0,1-1.92-.84,3.25,3.25,0,0,1,0-4.08,2.9,2.9,0,0,1,2.04-.84,2.238,2.238,0,0,1,1.92.84A2.823,2.823,0,0,1,117.8,30.78Zm-1.2,0a2.419,2.419,0,0,0-.36-1.32,1.049,1.049,0,0,0-1.08-.6,1.26,1.26,0,0,0-1.08.6,2.6,2.6,0,0,0,0,2.64,1.049,1.049,0,0,0,1.08.6,1.153,1.153,0,0,0,1.08-.72A1.792,1.792,0,0,0,116.6,30.78Z" transform="translate(1545.84 385.78)"/><path class="a" d="M122.54,33.54h-1.08l-.12-.6h0a1.935,1.935,0,0,1-1.56.72,1.391,1.391,0,0,1-1.2-.48,2.156,2.156,0,0,1-.48-1.08,1.628,1.628,0,0,1,.84-1.56,4.485,4.485,0,0,1,2.4-.48v-.12a.955.955,0,0,0-1.08-1.08,2.85,2.85,0,0,0-1.44.36l-.24-.84a3.045,3.045,0,0,1,1.92-.48c1.44,0,2.16.72,2.16,2.28v2.04A5.888,5.888,0,0,0,122.54,33.54Zm-1.2-1.92v-.84c-1.32,0-2.04.36-2.04,1.08a.82.82,0,0,0,.84.84,1.706,1.706,0,0,0,.72-.24,1.2,1.2,0,0,0,.48-.6Z" transform="translate(1546.98 385.78)"/><path class="a" d="M128.46,33.92h-1.08v-.84h0a1.771,1.771,0,0,1-1.8.96,2.179,2.179,0,0,1-1.68-.72,2.773,2.773,0,0,1-.6-2.04,3.35,3.35,0,0,1,.72-2.16,2.369,2.369,0,0,1,1.68-.72,1.783,1.783,0,0,1,1.56.72h0V26h1.2v7.92Zm-1.2-2.28V30.32a2.51,2.51,0,0,0-.48-.72,1.012,1.012,0,0,0-.84-.24,1.26,1.26,0,0,0-1.08.6,2.559,2.559,0,0,0-.36,1.44,2.156,2.156,0,0,0,.36,1.32,1.26,1.26,0,0,0,1.08.6,1.091,1.091,0,0,0,.96-.48A2.683,2.683,0,0,0,127.26,31.64Z" transform="translate(1548.02 385.4)"/><path class="a" d="M137.2,30.78a2.823,2.823,0,0,1-.72,2.04,2.472,2.472,0,0,1-2.04.84,2.238,2.238,0,0,1-1.92-.84,3.25,3.25,0,0,1,0-4.08,2.472,2.472,0,0,1,2.04-.84,2.238,2.238,0,0,1,1.92.84A2.823,2.823,0,0,1,137.2,30.78Zm-1.32,0a2.419,2.419,0,0,0-.36-1.32,1.049,1.049,0,0,0-1.08-.6,1.26,1.26,0,0,0-1.08.6,2.6,2.6,0,0,0,0,2.64,1.049,1.049,0,0,0,1.08.6,1.153,1.153,0,0,0,1.08-.72A1.792,1.792,0,0,0,135.88,30.78Z" transform="translate(1549.72 385.78)"/><path class="a" d="M142.58,33.56h-1.2V30.44q0-1.44-1.08-1.44a1.089,1.089,0,0,0-.84.36,1.363,1.363,0,0,0-.36.96v3.24h-1.2V28.04h1.08v.84h0a3.182,3.182,0,0,1,.6-.72,1.936,1.936,0,0,1,1.08-.36,1.8,1.8,0,0,1,1.32.48,2.065,2.065,0,0,1,.6,1.8Z" transform="translate(1550.939 385.76)"/><path class="a" d="M149.14,29.18h-1.32v2.64c0,.72.24.96.72.96h.6v.96a2.339,2.339,0,0,1-.96.12,1.17,1.17,0,0,1-1.08-.48,2.307,2.307,0,0,1-.36-1.44V29.18h-.84v-.96h.84v-.96l1.2-.36v1.32h1.32v.96Z" transform="translate(1552.86 385.58)"/><path class="a" d="M154.78,33.94h-1.2V30.82q0-1.44-1.08-1.44a1.155,1.155,0,0,0-1.2.84v3.72h-1.2V25.9h1.2v3.36h0a1.915,1.915,0,0,1,1.68-.96,1.391,1.391,0,0,1,1.2.48,2.7,2.7,0,0,1,.6,1.8Z" transform="translate(1553.7 385.379)"/><path class="a" d="M160.3,30.52v.6h-3.6a1.6,1.6,0,0,0,.48,1.2,2.027,2.027,0,0,0,1.2.36,4.476,4.476,0,0,0,1.44-.24l.24.84a4.007,4.007,0,0,1-1.8.36,2.891,2.891,0,0,1-2.04-4.8,2.238,2.238,0,0,1,1.92-.84,1.894,1.894,0,0,1,1.8.84A3.178,3.178,0,0,1,160.3,30.52Zm-1.08-.36a2.261,2.261,0,0,0-.24-.96.974.974,0,0,0-.96-.48,1.091,1.091,0,0,0-.96.48,1.363,1.363,0,0,0-.36.96Z" transform="translate(1554.78 385.799)"/></g></svg>